PathFileType	4	(x/y/z)	S10_PSF_T09
DataRate	CameraRate	NumFrames	NumMarkers	Units	OrigDataRate	OrigDataStartFrame	OrigNumFrames
240	240	8	51	mm	240	374	427
Frame#	Time	Sternum			R.Acromium			L.Acromium			Top.Head			R.ASIS			L.ASIS			R.PSIS			L.PSIS			R.Great.Tro			L.Great.Tro			R.Iliac.Crest			L.Iliac.Crest			V.Sacral			R.Thigh.Upper.Post			R.Thigh.Lower.Ant			R.Thigh.Lower.Post			R.Thigh.Upper.Ant			R.Knee.Lat			R.Knee.Med			R.Shank.Upper.Post			R.Shank.Lower.Ant			R.Shank.Lower.Post			R.Shank.Upper.Ant			R.Ankle.Lat			R.Ankle.Med			R.Heel.Upper			R.Heel.Med			R.Heel.Lat			R.Toe.Lat			R.Toe.Med			R.Toe.Tip			L.Thigh.Upper.Post			L.Thigh.Lower.Ant			L.Thigh.Lower.Post			L.Thigh.Upper.Ant			L.Knee.Lat			L.Knee.Med			L.Shank.Upper.Post			L.Shank.Lower.Ant			L.Shank.Lower.Post			L.Shank.Upper.Ant			L.Ankle.Lat			L.Ankle.Med			L.Heel.Upper			L.Heel.Med			L.Heel.Lat			L.Toe.Lat			L.Toe.Med			L.Toe.Tip			Cervical.Spine			Back			
		X1	Y1	Z1	X2	Y2	Z2	X3	Y3	Z3	X4	Y4	Z4	X5	Y5	Z5	X6	Y6	Z6	X7	Y7	Z7	X8	Y8	Z8	X9	Y9	Z9	X10	Y10	Z10	X11	Y11	Z11	X12	Y12	Z12	X13	Y13	Z13	X14	Y14	Z14	X15	Y15	Z15	X16	Y16	Z16	X17	Y17	Z17	X18	Y18	Z18	X19	Y19	Z19	X20	Y20	Z20	X21	Y21	Z21	X22	Y22	Z22	X23	Y23	Z23	X24	Y24	Z24	X25	Y25	Z25	X26	Y26	Z26	X27	Y27	Z27	X28	Y28	Z28	X29	Y29	Z29	X30	Y30	Z30	X31	Y31	Z31	X32	Y32	Z32	X33	Y33	Z33	X34	Y34	Z34	X35	Y35	Z35	X36	Y36	Z36	X37	Y37	Z37	X38	Y38	Z38	X39	Y39	Z39	X40	Y40	Z40	X41	Y41	Z41	X42	Y42	Z42	X43	Y43	Z43	X44	Y44	Z44	X45	Y45	Z45	X46	Y46	Z46	X47	Y47	Z47	X48	Y48	Z48	X49	Y49	Z49	X50	Y50	Z50	X51	Y51	Z51	

374	1.5542	560.06	1262.4	338.71	414.56	1412.8	480.59	463.1	1447.9	181.46	404.97	1735.4	361.43	505.08	996.75	432.03	505.75	1007.7	203.19	304.57	1012	347.67	310.52	1022	266.46	443.74	918.8	506.68	435.64	947.6	144.57	407.54	1074	475.74	443.1	1082.2	177.55	286.34	983.14	308.21	533.26	723.9	510.81	613.82	674.07	473.24	562.79	639.51	504.08	584.46	760.3	474.18	612	525.04	465.8	609.19	521.35	337.52	625.22	293.7	475.92	711.12	260.09	469.51	655.1	224.94	472.69	686.04	333.09	470.94	718.51	127.01	461.42	730.01	140.65	383.07	685.45	61.124	407.27	707.41	39.663	381.53	695.54	38.987	442.1	853.79	87.876	505.1	887.42	108.5	402.48	929.14	145.36	449.12	333.2	696.48	153.06	379.81	597.97	181.16	304.58	604.9	180.41	407.46	681.09	159.56	311.42	509.25	189.04	324.01	506.94	317.4	199.43	312.9	201.06	245.7	213.66	220.44	186.05	237.41	215.53	259.41	288.24	205.69	188.46	111.83	232.75	206.42	124.76	319.43	115.79	84.092	283.24	126.36	50.178	314.83	119.25	55.238	250.24	293.41	41.271	203.34	326.32	42.552	310.92	379.64	50.921	260.57	360.96	1481.9	328.28	280.79	1274.3	299.54
375	1.5583	565.53	1261	339.03	420.06	1411.4	481	468.73	1446.7	181.96	410.38	1734.1	362.13	510.73	995.5	432.25	511.16	1006.4	203.34	310.1	1010.7	348.07	316	1020.7	266.89	449.44	917.37	506.89	440.78	946.6	144.67	413.09	1072.7	476.03	448.43	1081	177.75	291.82	981.89	308.59	537.95	721.98	510.89	618.1	671.62	473.19	566.84	637.38	504.05	589.33	758.07	474.24	616.46	523.47	465.68	612.53	519.07	337.22	633.95	292.51	476.27	720.47	260.47	469.56	665.16	224.21	472.89	693.94	333.02	470.94	730.6	127.38	461.62	741.32	141.13	383.23	698.55	60.538	407.93	720.78	39.464	382.1	709.25	38.741	442.75	867	90.991	504.74	899.63	112.01	401.86	940.89	149.84	448.13	336.99	696.26	153.38	383.02	597.4	181.21	307.89	604.83	180.66	411.19	680.39	159.54	314.22	509.05	189.12	327.17	506.57	317.48	201.09	313.33	201.19	246.73	213.76	220.44	187.24	237.91	215.62	260.91	288.25	205.72	188.84	112.24	232.82	207.02	125.13	319.5	116.05	84.62	283.31	126.52	50.679	314.89	119.39	55.749	250.3	293.46	41.219	203.3	326.41	42.512	310.89	379.76	50.688	260.52	366.57	1480.6	328.7	286.32	1273.1	299.77
376	1.5625	571.02	1259.6	339.34	425.61	1410	481.41	474.36	1445.5	182.47	415.8	1732.8	362.84	516.39	994.26	432.47	516.58	1005.2	203.48	315.64	1009.4	348.49	321.5	1019.5	267.33	455.18	915.96	507.12	445.94	945.58	144.76	418.67	1071.3	476.32	453.78	1079.8	177.95	297.33	980.63	308.98	542.75	720.15	511	622.48	669.27	473.15	571.04	635.35	504.04	594.3	755.92	474.3	621	521.96	465.6	615.9	516.86	336.97	642.45	291.39	476.56	729.5	260.81	469.53	674.87	223.54	473.01	701.64	332.93	470.91	742.18	127.76	461.7	752.17	141.62	383.28	711.09	60.042	408.43	733.56	39.337	382.51	722.36	38.568	443.25	879.61	93.952	504.26	911.27	115.33	401.12	952.09	154.07	447.04	340.82	695.99	153.75	386.32	596.82	181.26	311.3	604.74	180.92	414.99	679.68	159.52	317.11	508.82	189.23	330.44	506.17	317.58	202.82	313.77	201.32	247.81	213.88	220.45	188.48	238.44	215.71	262.48	288.27	205.76	189.25	112.67	232.88	207.65	125.51	319.57	116.32	85.2	283.36	126.69	51.239	314.94	119.54	56.301	250.35	293.51	41.163	203.27	326.5	42.476	310.86	379.88	50.449	260.47	372.21	1479.4	329.15	291.86	1271.9	300.02
377	1.5667	576.54	1258.1	339.66	431.18	1408.6	481.85	480	1444.4	182.99	421.22	1731.4	363.56	522.07	993.03	432.69	522.03	1004	203.63	321.21	1008.1	348.92	327.02	1018.2	267.77	460.96	914.58	507.38	451.14	944.56	144.87	424.27	1070	476.62	459.14	1078.5	178.15	302.87	979.34	309.38	547.67	718.4	511.12	627	667.03	473.1	575.39	633.42	504.07	599.36	753.89	474.35	625.63	520.51	465.55	619.31	514.74	336.77	650.7	290.32	476.78	738.21	261.11	469.42	684.23	222.9	473.06	709.14	332.8	470.83	753.23	128.12	461.66	762.52	142.09	383.22	723.03	59.613	408.78	745.72	39.256	382.77	734.84	38.441	443.58	891.58	96.713	503.65	922.31	118.44	400.28	962.73	158.01	445.88	344.68	695.67	154.18	389.72	596.24	181.3	314.8	604.62	181.2	418.86	678.95	159.5	320.12	508.58	189.35	333.83	505.74	317.69	204.63	314.22	201.46	248.94	214	220.45	189.79	238.99	215.79	264.12	288.29	205.81	189.68	113.14	232.92	208.3	125.92	319.62	116.61	85.834	283.38	126.86	51.86	314.98	119.7	56.899	250.39	293.57	41.103	203.23	326.59	42.446	310.83	380.01	50.203	260.41	377.86	1478.3	329.62	297.43	1270.7	300.29
378	1.5708	582.07	1256.7	339.98	436.79	1407.3	482.3	485.65	1443.2	183.52	426.65	1730.1	364.29	527.77	991.81	432.92	527.5	1002.7	203.78	326.8	1006.8	349.37	332.57	1017	268.22	466.76	913.24	507.65	456.37	943.54	144.98	429.91	1068.7	476.93	464.51	1077.3	178.34	308.43	978.06	309.8	552.73	716.76	511.27	631.66	664.93	473.06	579.92	631.6	504.11	604.53	751.97	474.41	630.38	519.12	465.53	622.78	512.73	336.61	658.71	289.3	476.93	746.6	261.34	469.24	693.23	222.3	473.03	716.45	332.62	470.71	763.73	128.43	461.5	772.37	142.52	383.05	734.35	59.229	408.97	757.22	39.199	382.87	746.67	38.334	443.76	902.93	99.23	502.92	932.76	121.28	399.34	972.8	161.6	444.64	348.59	695.31	154.67	393.23	595.64	181.34	318.4	604.48	181.49	422.8	678.22	159.5	323.24	508.31	189.5	337.35	505.28	317.81	206.53	314.69	201.61	250.12	214.13	220.45	191.16	239.57	215.88	265.84	288.3	205.87	190.15	113.64	232.95	208.98	126.35	319.66	116.91	86.526	283.38	127.04	52.546	314.99	119.87	57.545	250.4	293.63	41.038	203.18	326.69	42.422	310.8	380.15	49.952	260.35	383.53	1477.1	330.1	303.02	1269.5	300.58
379	1.575	587.63	1255.3	340.31	442.42	1405.9	482.76	491.31	1442	184.06	432.08	1728.9	365.04	533.49	990.61	433.15	532.99	1001.5	203.93	332.41	1005.5	349.83	338.13	1015.7	268.68	472.59	911.95	507.94	461.63	942.5	145.1	435.57	1067.4	477.25	469.9	1076.1	178.54	314.02	976.77	310.22	557.92	715.22	511.43	636.47	662.98	473.01	584.63	629.91	504.18	609.81	750.18	474.45	635.24	517.81	465.51	626.35	510.84	336.5	666.47	288.33	477.01	754.67	261.48	468.99	701.85	221.7	472.93	723.56	332.39	470.54	773.68	128.67	461.24	781.71	142.87	382.78	745.03	58.871	409.02	768.05	39.142	382.83	757.81	38.223	443.79	913.62	101.46	502.09	942.6	123.82	398.3	982.32	164.81	443.33	352.55	694.9	155.2	396.86	595.03	181.38	322.1	604.3	181.8	426.83	677.49	159.5	326.48	508.02	189.68	340.99	504.79	317.95	208.52	315.18	201.75	251.36	214.27	220.45	192.6	240.16	215.95	267.63	288.32	205.94	190.64	114.17	232.97	209.69	126.8	319.68	117.24	87.278	283.35	127.23	53.299	314.99	120.06	58.241	250.39	293.7	40.969	203.13	326.8	42.403	310.78	380.28	49.695	260.29	389.22	1475.9	330.61	308.63	1268.4	300.88
380	1.5792	593.21	1253.9	340.64	448.09	1404.5	483.24	496.97	1440.9	184.62	437.52	1727.6	365.79	539.22	989.43	433.38	538.5	1000.3	204.09	338.05	1004.2	350.31	343.72	1014.4	269.14	478.45	910.71	508.25	466.92	941.46	145.23	441.26	1066.2	477.58	475.31	1074.9	178.74	319.64	975.48	310.66	563.26	713.81	511.61	641.45	661.18	472.95	589.54	628.35	504.26	615.21	748.53	474.49	640.23	516.57	465.51	630.03	509.08	336.44	673.97	287.38	477.02	762.42	261.53	468.67	710.09	221.11	472.77	730.47	332.09	470.34	783.06	128.81	460.88	790.52	143.14	382.41	755.05	58.521	408.93	778.19	39.064	382.65	768.25	38.088	443.68	923.67	103.37	501.16	951.83	126.02	397.16	991.28	167.57	441.95	356.57	694.45	155.78	400.6	594.41	181.42	325.91	604.08	182.12	430.94	676.74	159.51	329.85	507.7	189.87	344.76	504.27	318.11	210.61	315.69	201.9	252.65	214.42	220.45	194.11	240.79	216.02	269.51	288.34	206.01	191.16	114.73	232.97	210.42	127.28	319.68	117.58	88.094	283.29	127.43	54.123	314.96	120.25	58.991	250.36	293.77	40.897	203.07	326.9	42.392	310.75	380.43	49.434	260.22	394.93	1474.8	331.14	314.26	1267.2	301.2
381	1.5833	598.82	1252.5	340.98	453.79	1403.1	483.73	502.64	1439.8	185.18	442.98	1726.3	366.55	544.97	988.28	433.62	544.04	999.07	204.25	343.71	1002.9	350.8	349.34	1013.2	269.6	484.34	909.52	508.57	472.25	940.41	145.38	446.97	1065	477.92	480.74	1073.7	178.93	325.29	974.21	311.11	568.74	712.52	511.81	646.6	659.56	472.88	594.66	626.94	504.36	620.72	747.03	474.52	645.35	515.4	465.51	633.86	507.46	336.4	681.21	286.46	476.96	769.85	261.46	468.27	717.96	220.5	472.55	737.21	331.72	470.09	791.88	128.85	460.43	798.81	143.29	381.95	764.4	58.165	408.73	787.61	38.947	382.35	777.98	37.912	443.44	933.06	104.92	500.13	960.46	127.84	395.95	999.7	169.87	440.51	360.66	693.96	156.39	404.46	593.78	181.47	329.84	603.83	182.46	435.14	675.98	159.55	333.34	507.36	190.09	348.67	503.71	318.29	212.79	316.21	202.04	254.01	214.59	220.45	195.7	241.43	216.09	271.48	288.36	206.1	191.71	115.33	232.95	211.17	127.78	319.67	117.95	88.977	283.2	127.64	55.022	314.91	120.46	59.799	250.31	293.84	40.82	203.01	327.02	42.388	310.71	380.58	49.167	260.16	400.65	1473.6	331.69	319.92	1266.1	301.53
